<?xml version="1.0" encoding="UTF-8"?><svg xmlns="http://www.w3.org/2000/svg" viewBox="0 0 730.31 995.31"><defs><style>.cls-1{fill:#ffffe6;}</style></defs><g id="C"><path class="cls-1" d="M394.03,995.31h-211.88v-90.48h-60.72v-90.48h-60.72v-180.97H0v-361.93h60.72V90.48h60.72V0h182.15v90.48h60.72v180.97h-121.43v-90.48h-60.72v90.48h-60.72v452.41h60.72l4.34,126.66h272.6l-4.34-126.66v-31.15.51h121.43v-.51,121.63h-60.72v90.48h-60.72v90.48h-60.72Z"/><polygon class="cls-1" points="181.09 780.06 225.23 780.06 225.23 853.15 180.36 853.15 181.09 780.06"/><polygon class="cls-1" points="418.43 782.23 462.57 782.23 462.57 855.32 417.71 855.32 418.43 782.23"/></g><g id="J"><path class="cls-1" d="M316.4,727.24h-99.86v-36.64h-33.29v-73.28h33.29v-36.64h66.57v73.28h66.57v-36.64h33.29v-73.28h-33.29v-36.64h-33.29v-36.64h-33.29v36.64h-99.86v-73.28h66.57v-36.64h33.29v-36.64h33.29v-36.64h133.15v36.64h33.29v73.28h-99.86v-36.64h-33.29v73.28h33.29v36.64h33.29v146.57h-33.29v36.64h-33.29v36.64h-33.29Z"/></g><g id="A"><path class="cls-1" d="M679.95,656.72h-25.18v-171.87h-25.18v-34.37h-50.36v34.37h-25.18v137.5h-25.18v34.37h-50.36v-103.12h25.18v-68.75h-25.18v-34.37h25.18v-137.5h25.18v-34.37h75.54v34.37h25.18v34.37h25.18v34.37h75.54v68.75h-50.36v34.37h25.18v68.75h25.18v68.75h-25.18v34.37h-25.18ZM579.22,416.09h25.18v-68.75h-50.36v68.75h25.18Z"/></g></svg>