<?xml version="1.0" encoding="UTF-8"?><svg id="Layer_4" xmlns="http://www.w3.org/2000/svg" viewBox="0 0 792 612"><defs><style>.cls-1{fill:#f29f3a;}</style></defs><path class="cls-1" d="M245.91,229.67c25.03-5.49,25.03-9.16,23.2-17.09-1.68-7.3-32-10.33-44.47-7.46-1.74.4-3.26,1.39-4.42,2.74h0c-2.11,2.46-2.61,5.89-1.36,8.89,2.77,6.66,9.89,16.69,27.06,12.92Z"/><path class="cls-1" d="M282.22,199.35c3.97,3.47,10.25,1.88,12.54-2.87,3.03-6.28,7.33-15.56,10.82-24.65,4.65-12.08-6.8-12.22-12.53-11.6-1.96.21-3.75,1.13-5.08,2.58-2.95,3.21-8.24,9.59-9.86,15.74-1.99,7.55-2.37,15.16,4.1,20.81Z"/><path class="cls-1" d="M400.97,295.04c-5.52-.95-10.6-3.38-15.12-8.61-3.42-3.96-6.39-8.42-7.87-13.44-2.44-8.27-1.4-18.09-1.23-26.66.18-8.64.8-17.27,1.97-25.83,2.3-16.84,6.6-34.08,15.64-48.66,7.41-11.96,20.26-21.56,34.33-21.13,8.65.27,16.99,4.36,22.97,10.63,7.77,8.15,11.45,20.82,6.84,31.09-3.53,7.86-11.04,13.06-16.61,19.63-8.97,10.56-12.85,25.25-10.28,38.87.85,4.51,3.14,9.61,7.67,10.41,2.58.46,5.15-.66,7.5-1.81,12.39-6.07,23.94-13.87,34.21-23.09,9.57-8.6,18.62-20.29,16.66-33.01-.98-6.35-16.83-10.5-17.68-16.87-1.42-10.65,17.48-15.53,22.44-23.15,4.23-6.49,5.05-14.65,2.75-22.05-6.72-21.61-29.05-47.45-54.57-42.71-8.61,1.6-16.49,5.83-23.97,10.38-39.72,24.21-94.86,72.53-97.82,122.73-.94,15.97,6.75,31.04,14.23,45.19-5.21-9.86-31.1-16.79-41.4-19.22-15.69-3.71-32.12-4.13-47.99-1.36-28.54,4.97-68.81,24.15-76.98,54.83-4.53,17.02,4.08,34.59,19.16,43.69,26.35,15.89,56.22,8.31,82.83-1.86,21.46-8.2,49.27-14.21,72.21-15.38-1.95,8.77-16.22,10.72-23.46,16.04-29.87,21.92-58.97,45.5-82,74.51-8.91,11.22-16.97,23.44-21.03,37.18-4.06,13.74-3.73,29.26,3.45,41.67,8.93,15.44,27.22,23.74,45.03,24.53,34.86,1.54,73.82-20.81,102.04-39.78,39.64-26.65,79.72-69.78,58.04-120.63,28.97,19.32,68.2,13.67,100.05-.4,14.45-6.38,28.81-14.85,35.77-29.61,2.87-6.1,3.99-13.03,2.75-19.66-3.07-16.38-17.16-21.63-30.38-24.98-19.3-4.9-39.23-7.39-59.15-7.38-20.12,0-40.45,3.32-60.48,5.41-7.28.76-14.18,1.59-20.49.5ZM243.72,339.46c-29.3,3.66-45.19-4.69-9.2-44.39,38.85-42.85,97.31,10.43,99.85,16,0,0-61.35,24.72-90.65,28.38ZM305.53,488.25c-29.91-12.16-32.25-25.88-14.19-57.23,25.96-45.06,78.5-73.26,84.2-59.95,0,0,13.36,35.24,16.48,60.89,5.08,41.77-65.83,64.69-86.49,56.29ZM527.57,329.39c-.35,10.99-14.65,32.51-44.87,36.63-30.22,4.12-71.42-44.87-71.42-44.87,28.63-22.57,117-14.46,116.29,8.24Z"/></svg>